# AST/ASF file generated using VICON BodyLanguage
# -----------------------------------------------
:version 1.10
:name VICON
:units
  mass 1.0
  length 0.45
  angle deg
:documentation
   .ast/.asf automatically generated from VICON data using
   VICON BodyBuilder and BodyLanguage model FoxedUp or BRILLIANT.MOD
:root
   order TX TY TZ RX RY RZ
   axis XYZ
   position 0 0 0  
   orientation 0 0 0 
:bonedata
  begin
     id 1 
     name lhipjoint
     direction 0.567149 -0.783011 0.255413 
     length 2.28399 
     axis 0 0 0  XYZ
  end
  begin
     id 2 
     name lfemur
     direction 0.34202 -0.939693 0  
     length 7.34031  
     axis 0 0 20  XYZ
    dof rx ry rz
    limits (-160.0 20.0)
           (-70.0 70.0)
           (-60.0 70.0)
  end
  begin
     id 3 
     name ltibia
     direction 0.34202 -0.939693 0   
     length 6.9833   
     axis 0 0 20   XYZ
    dof rx
    limits (-10.0 170.0)
  end
  begin
     id 4 
     name lfoot
     direction 0.136498 -0.375025 0.91691   
     length 2.33665   
     axis -90 7.62852e-016 20   XYZ
    dof rx rz
    limits (-45.0 90.0)
           (-70.0 20.0)
  end
  begin
     id 5 
     name ltoes
     direction 1.5367e-011 -4.21617e-011 1   
     length 1.15039   
     axis -90 7.62852e-016 20   XYZ
    dof rx
    limits (-90.0 20.0)
  end
  begin
     id 6 
     name rhipjoint
     direction -0.602854 -0.758518 0.247423   
     length 2.35775  
     axis 0 0 0  XYZ 
  end
  begin
     id 7 
     name rfemur
     direction -0.34202 -0.939693 0   
     length 7.43932   
     axis 0 0 -20   XYZ
    dof rx ry rz
    limits (-160.0 20.0)
           (-70.0 70.0)
           (-70.0 60.0)
  end
  begin
     id 8 
     name rtibia
     direction -0.34202 -0.939693 0   
     length 7.11893   
     axis 0 0 -20   XYZ
    dof rx
    limits (-10.0 170.0)
 end
 begin
     id 9 
     name rfoot
     direction -0.131771 -0.362037 0.922803   
     length 2.53019  
     axis -90 -7.62852e-016 -20   XYZ
    dof rx rz
    limits (-45.0 90.0)
           (-20.0 70.0)
  end
  begin
     id 10 
     name rtoes
     direction -1.53733e-011 -4.21932e-011 1   
     length 1.24596   
     axis -90 -7.62852e-016 -20   XYZ
    dof rx
    limits (-90.0 20.0)
  end
  begin
     id 11 
     name lowerback
     direction 0.0235427 0.999023 -0.0374125   
     length 2.21768   
     axis 0 0 0   XYZ
    dof rx ry rz
    limits (-20.0 45.0)
           (-30.0 30.0)
           (-30.0 30.0)
  end
  begin
     id 12 
     name upperback
     direction 0.0302156 0.996818 -0.073759   
     length 2.20352   
     axis 0 0 0   XYZ
    dof rx ry rz
    limits (-20.0 45.0)
           (-30.0 30.0)
           (-30.0 30.0)
  end
  begin
     id 13 
     name thorax
     direction 0.0187169 0.998235 -0.0563532   
     length 2.22103   
     axis 0 0 0   XYZ
    dof rx ry rz
    limits (-20.0 45.0)
           (-30.0 30.0)
           (-30.0 30.0)
  end
  begin
     id 14 
     name lowerneck
     direction -0.119528 0.987423 0.103481   
     length 1.72948   
     axis 0 0 0   XYZ
    dof rx ry rz
    limits (-20.0 45.0)
           (-30.0 30.0)
           (-30.0 30.0)
  end
  begin
     id 15 
     name upperneck
     direction 0.248049 0.963095 -0.104496   
     length 1.74979   
     axis 0 0 0   XYZ
    dof rx ry rz
    limits (-20.0 45.0)
           (-30.0 30.0)
           (-30.0 30.0)
  end
  begin
     id 16
     name head
     direction 0.0903589 0.994284 -0.056876  
     length 1.78268  
     axis 0 0 0   XYZ
    dof rx ry rz
    limits (-20.0 45.0)
           (-30.0 30.0)
           (-30.0 30.0)
  end
  begin
     id 17 
     name lclavicle
     direction 0.946008 0.242039 -0.215608  
     length 3.80783  
     axis 0 0 0   XYZ
    dof ry rz
    limits (-20.0 10.0)
           (0.0 20.0)
  end
  begin
     id 18 
     name lhumerus
     direction 1 -4.48991e-011 -2.25695e-027   
     length 4.83125   
     axis 180 -30 -90   XYZ
    dof rx ry rz
    limits (-60.0 90.0)
           (-90.0 90.0)
           (-90.0 90.0)
  end
  begin
     id 19
     name lradius
     direction 0.999991 0.00366712 -0.00211721   
     length 3.00391   
     axis 180 -30 -90   XYZ
    dof rx
    limits (-10.0 170.0)
  end
  begin
     id 20
     name lwrist
     direction 0.999991 0.00393016 -0.00141978   
     length 1.50195   
     axis -1.00488e-014 90 90   XYZ
    dof ry
    limits (-180.0 0.0)
 end
  begin
     id 21 
     name lhand
     direction 1 -4.49123e-011 2.72098e-026   
     length 1.2717   
     axis -1.73687e-014 90 90   XYZ
    dof rx rz
    limits (-90.0 90.0)
           (-45.0 45.0)
  end
  begin
     id 22 
     name lfingers
     direction 1 -4.48678e-011 5.4479e-026   
     length 1.02528   
     axis -3.47372e-014 90 90   XYZ
    dof rx
    limits (0.0 90.0)
  end
  begin
     id 23
     name lthumb
     direction 0.707107 -6.34851e-011 0.707107   
     length 1.4721   
     axis -90 45 -1.62303e-014   XYZ
    dof rx rz
    limits (-45.0 45.0)
           (-45.0 45.0)
  end
  begin
     id 24 
     name rclavicle
     direction -0.981723 0.189447 -0.0181673   
     length 3.74989  
     axis 0 0 0   XYZ 
    dof ry rz
    limits (-10.0 20.0)
           (-20.0 0.0)
  end
  begin
     id 25 
     name rhumerus
     direction -1 -4.48985e-011 2.38206e-027  
     length 4.61118   
     axis 180 30 90   XYZ
    dof rx ry rz
    limits (-90.0 60.0)
           (-90.0 90.0)
           (-90.0 90.0)
  end
  begin
     id 26 
     name rradius
     direction -1 -4.48977e-011 7.41019e-027   
     length 2.91491   
     axis 180 30 90   XYZ
    dof rx
    limits (-10.0 170.0)
  end
  begin
     id 27 
     name rwrist
     direction -1 -4.48549e-011 1.3624e-026   
     length 1.45745   
     axis -1.00488e-014 -90 -90   XYZ
    dof ry
    limits (-180.0 0.0)
  end
  begin
     id 28
     name rhand
     direction -1 -4.49107e-011 2.72109e-026   
     length 1.30769   
     axis -1.73687e-014 -90 -90   XYZ
    dof rx rz
    limits (-90.0 90.0)
           (-45.0 45.0)
  end
  begin
     id 29
     name rfingers
     direction -1 -4.48919e-011 5.44468e-026   
     length 1.05429   
     axis -3.47372e-014 -90 -90   XYZ
    dof rx
    limits (0.0 90.0)
  end
  begin
     id 30
     name rthumb
     direction -0.707107 -6.35315e-011 0.707107   
     length 1.51376   
     axis -90 -45 1.62303e-014   XYZ
    dof rx rz
    limits (-45.0 45.0)
           (-45.0 45.0)
  end
:hierarchy
  begin
    root lhipjoint rhipjoint lowerback
    lhipjoint lfemur
    lfemur ltibia
    ltibia lfoot
    lfoot ltoes
    rhipjoint rfemur
    rfemur rtibia
    rtibia rfoot
    rfoot rtoes
    lowerback upperback
    upperback thorax
    thorax lowerneck lclavicle rclavicle
    lowerneck upperneck
    upperneck head
    lclavicle lhumerus
    lhumerus lradius
    lradius lwrist
    lwrist lhand lthumb
    lhand lfingers
    rclavicle rhumerus
    rhumerus rradius
    rradius rwrist
    rwrist rhand rthumb
    rhand rfingers
  end

#!OML:ASF X:\für Bonn\!DataBase\2005_08_11_Bastian_Final\c3d\Bastian.ASF
:FULLY-SPECIFIED
:DEGREES
16
root 0.0736786 17.5616 2.38738 166.321 -3.27775 -174.948
lowerback 13.5466 -0.246475 2.64263
upperback 8.62628 -1.40447 2.20804
thorax 1.50951 -1.24144 0.966707
lowerneck -8.80963 -6.89899 -6.58687
upperneck 1.38877 -8.98046 8.16049
head 2.78525 -4.35089 3.38116
rclavicle 5.09386e-015 -1.68967e-014
rhumerus 41.7281 59.5 -42.1642
rradius 43.215
rwrist -74.4353
rhand -49.1992 -17.2281
rfingers 7.12502
rthumb -21.8203 -46.018
lclavicle 5.09386e-015 -1.68967e-014
lhumerus 38.1104 -74.3786 52.9118
lradius 33.5655
lwrist 45.7474
lhand -45.7904 21.3147
lfingers 7.12502
lthumb -18.5441 50.4508
rfemur 5.13661 1.29108 27.624
rtibia 29.0965
rfoot -15.1492 -19.4973
rtoes 2.54487
lfemur 8.5318 1.46802 -13.8211
ltibia 21.8815
lfoot -9.39332 -4.84171
ltoes -13.9863
17
root 0.0740558 17.5614 2.40293 166.241 -3.32054 -174.902
lowerback 13.4167 -0.273336 2.67526
upperback 8.49863 -1.40095 2.18443
thorax 1.44116 -1.22313 0.922641
lowerneck -8.38149 -6.90647 -6.69944
upperneck 1.90504 -9.02352 8.51817
head 2.6173 -4.34597 3.17441
rclavicle 1.36664e-016 -1.28216e-014
rhumerus 46.4382 57.1836 -38.5925
rradius 43.3435
rwrist -72.9471
rhand -48.6059 -15.8589
rfingers 7.12502
rthumb -21.2505 -44.7139
lclavicle 1.36664e-016 -1.28216e-014
lhumerus 45.9793 -72.1602 46.2165
lradius 34.2159
lwrist 43.3571
lhand -45.9332 20.4304
lfingers 7.12502
lthumb -18.6814 49.5533
rfemur 5.18846 1.37438 27.7006
rtibia 29.0497
rfoot -15.1216 -19.6162
rtoes 2.71383
lfemur 8.50785 1.4399 -13.7787
ltibia 21.9458
lfoot -9.34586 -4.87121
ltoes -14.1318
18
root 0.0748113 17.5617 2.41537 166.17 -3.38722 -174.877
lowerback 13.2786 -0.308394 2.68321
upperback 8.37062 -1.41113 2.15984
thorax 1.37713 -1.21251 0.892814
lowerneck -8.01705 -6.92011 -6.90868
upperneck 2.32594 -9.06039 8.64688
head 2.70346 -4.35936 3.24806
rclavicle -5.92627e-015 -1.93815e-014
rhumerus 50.8682 54.7617 -35.0429
rradius 43.6121
rwrist -71.7754
rhand -48.2985 -14.4078
rfingers 7.12502
rthumb -20.9552 -43.2958
lclavicle -5.92627e-015 -1.93815e-014
lhumerus 52.3705 -69.6844 40.7458
lradius 34.9552
lwrist 41.2801
lhand -46.1063 19.6506
lfingers 7.12502
lthumb -18.8479 48.7574
rfemur 5.24338 1.44375 27.7512
rtibia 29.0075
rfoot -15.115 -19.7366
rtoes 2.87807
lfemur 8.4834 1.40878 -13.7592
ltibia 22.01
lfoot -9.31927 -4.91063
ltoes -14.1656
19
root 0.0748636 17.5618 2.42559 166.104 -3.45171 -174.825
lowerback 13.2055 -0.365 2.75475
upperback 8.20129 -1.43379 2.11961
thorax 1.23367 -1.20401 0.815094
lowerneck -7.78227 -6.9156 -7.08379
upperneck 2.85898 -9.0802 8.753
head 2.84 -4.362 3.30496
rclavicle 2.23012e-014 -1.97791e-014
rhumerus 54.5657 52.1756 -32.2055
rradius 43.8913
rwrist -70.6442
rhand -48.2665 -12.9753
rfingers 7.12502
rthumb -20.9245 -41.8667
lclavicle 2.23012e-014 -1.97791e-014
lhumerus 57.4773 -67.0518 36.287
lradius 35.7387
lwrist 39.5406
lhand -46.3072 18.9611
lfingers 7.12502
lthumb -19.0411 48.049
rfemur 5.29874 1.55958 27.8534
rtibia 28.9594
rfoot -15.0701 -19.9317
rtoes 2.91871
lfemur 8.45295 1.37142 -13.7113
ltibia 22.0869
lfoot -9.28859 -4.9495
ltoes -14.1842
20
root 0.0761777 17.5625 2.43228 166.057 -3.52485 -174.777
lowerback 13.1394 -0.428117 2.78416
upperback 8.03531 -1.47297 2.11455
thorax 1.09161 -1.20785 0.799693
lowerneck -7.74827 -6.90136 -7.29121
upperneck 3.5037 -9.07837 8.80379
head 3.03946 -4.35106 3.34388
rclavicle -1.55425e-014 3.8266e-015
rhumerus 57.6153 49.4182 -29.9895
rradius 44.1425
rwrist -69.3356
rhand -48.3612 -11.6563
rfingers 7.12502
rthumb -21.0155 -40.5377
lclavicle -1.55425e-014 3.8266e-015
lhumerus 61.3053 -64.1765 32.9891
lradius 36.4821
lwrist 37.9004
lhand -46.474 18.3723
lfingers 7.12502
lthumb -19.2016 47.4444
rfemur 5.34297 1.65377 27.9429
rtibia 28.91
rfoot -15.0724 -20.0897
rtoes 3.05155
lfemur 8.40962 1.34049 -13.6603
ltibia 22.1758
lfoot -9.2759 -5.00608
ltoes -14.2083
21
root 0.0756998 17.5622 2.43772 166.001 -3.5989 -174.747
lowerback 13.0582 -0.494328 2.83238
upperback 7.86997 -1.51389 2.08279
thorax 0.957388 -1.21079 0.74575
lowerneck -7.53242 -6.87904 -7.46349
upperneck 3.97367 -9.07561 8.86528
head 3.15593 -4.34773 3.38962
rclavicle 2.29534e-014 -1.36664e-014
rhumerus 59.8297 46.5193 -28.7503
rradius 44.2972
rwrist -67.5294
rhand -48.5296 -10.7242
rfingers 7.12502
rthumb -21.1772 -39.5875
lclavicle 2.29534e-014 -1.36664e-014
lhumerus 64.4073 -61.204 30.236
lradius 37.1533
lwrist 36.4242
lhand -46.5694 17.8286
lfingers 7.12502
lthumb -19.2933 46.8916
rfemur 5.39802 1.62709 27.9679
rtibia 28.8659
rfoot -15.0626 -20.147
rtoes 2.90141
lfemur 8.38367 1.28066 -13.6478
ltibia 22.264
lfoot -9.27972 -5.0073
ltoes -14.2941
22
root 0.0753109 17.5627 2.44045 165.97 -3.63751 -174.692
lowerback 12.9415 -0.564692 2.9027
upperback 7.69301 -1.55737 2.06395
thorax 0.830061 -1.21393 0.6924
lowerneck -7.18857 -6.83908 -7.64726
upperneck 4.32322 -9.05267 8.93184
head 3.21432 -4.34048 3.44636
rclavicle 9.81499e-015 -1.78906e-014
rhumerus 61.9018 43.6392 -27.5418
rradius 44.3924
rwrist -65.7307
rhand -48.7252 -10.1278
rfingers 7.12502
rthumb -21.3651 -38.9699
lclavicle 9.81499e-015 -1.78906e-014
lhumerus 67.4384 -58.2003 27.2643
lradius 37.8835
lwrist 35.3148
lhand -46.8218 17.5293
lfingers 7.12502
lthumb -19.536 46.5678
rfemur 5.41916 1.56066 28.0069
rtibia 28.8344
rfoot -15.02 -20.1422
rtoes 2.86044
lfemur 8.35188 1.1991 -13.6068
ltibia 22.3422
lfoot -9.30277 -4.99392
ltoes -14.1781
23
root 0.0746816 17.5619 2.43944 165.928 -3.65456 -174.668
lowerback 12.8377 -0.635803 2.94977
upperback 7.49268 -1.59915 2.03289
thorax 0.67111 -1.21564 0.640028
lowerneck -6.66938 -6.76663 -7.85742
upperneck 4.59514 -8.9975 9.03124
head 3.22047 -4.32351 3.52646
rclavicle 9.19379e-015 -1.99282e-014
rhumerus 64.0425 40.8436 -25.9887
rradius 44.487
rwrist -64.2134
rhand -49.0412 -9.93031
rfingers 7.12502
rthumb -21.6686 -38.7377
lclavicle 9.19379e-015 -1.99282e-014
lhumerus 70.5801 -55.1672 23.8269
lradius 38.695
lwrist 34.5726
lhand -47.1945 17.4991
lfingers 7.12502
lthumb -19.8943 46.5009
rfemur 5.46677 1.57364 28.0326
rtibia 28.813
rfoot -15.024 -20.1693
rtoes 2.92154
lfemur 8.36376 1.10468 -13.6123
ltibia 22.4113
lfoot -9.34068 -4.9246
ltoes -14.2187
